<svg xmlns="http://www.w3.org/2000/svg" viewBox="0 0 140 22.23"><defs><style>.a{fill:#231f20;}.b{fill:#ef4136;}.c{fill:#1f6e37;}.d{fill:#fff200;}.e{fill:#77c043;}.f{fill:#ed1c24;}</style></defs><title>STRING-DDB</title><path class="a" d="M34,11.57H19.79l0.48-2H34.49Z" transform="translate(-17.79 -3.92)"/><path class="a" d="M45.4,12.65q0.2-.77-1.1-1.19L42.83,11q-3.1-1.06-3-2.88a2.23,2.23,0,0,1,.76-1.48,4.7,4.7,0,0,1,1.92-1,9.1,9.1,0,0,1,2.67-.35,5.47,5.47,0,0,1,3.13.86,2.55,2.55,0,0,1,1.16,2.23H46.45a1.15,1.15,0,0,0-.32-0.92A1.61,1.61,0,0,0,45,7.09a3,3,0,0,0-1.37.27,1.16,1.16,0,0,0-.7.77q-0.17.68,1.34,1.12a17.35,17.35,0,0,1,2.19.75q2.15,1,2,2.63a2.34,2.34,0,0,1-.73,1.51,4.35,4.35,0,0,1-1.82,1,8.68,8.68,0,0,1-2.61.34,8.17,8.17,0,0,1-2-.25,4.78,4.78,0,0,1-1.56-.7,2.7,2.7,0,0,1-1.26-2.42H41.6A1.33,1.33,0,0,0,42,13.28a2.23,2.23,0,0,0,1.48.39,2.78,2.78,0,0,0,1.29-.27A1.14,1.14,0,0,0,45.4,12.65Z" transform="translate(-17.79 -3.92)"/><path class="a" d="M61.32,7.26H57.51l-1.84,8.07H52.58l1.85-8.07H50.68l0.43-1.85H61.74Z" transform="translate(-17.79 -3.92)"/><path class="a" d="M66.43,11.83H64.72l-0.81,3.51H60.83L63.1,5.42h4.62a6.24,6.24,0,0,1,3.42.79,2.18,2.18,0,0,1,1.08,2.15,2.76,2.76,0,0,1-.82,1.78,5,5,0,0,1-2,1.11l1.76,4v0.12H67.87ZM65.13,10h1.8a2.82,2.82,0,0,0,1.28-.27A1.66,1.66,0,0,0,69,9a1.36,1.36,0,0,0,.13-0.92,1.16,1.16,0,0,0-1.28-.8H65.76Z" transform="translate(-17.79 -3.92)"/><path class="a" d="M75.86,15.34H72.79l2.28-9.92h3.07Z" transform="translate(-17.79 -3.92)"/><path class="a" d="M88.68,15.34h-3L82.57,9.08l-1.44,6.26H78.06l2.27-9.92h3l3.12,6.26,1.43-6.26H91Z" transform="translate(-17.79 -3.92)"/><path class="a" d="M101.55,14.12a5.09,5.09,0,0,1-2.15,1,12.16,12.16,0,0,1-3.13.34,5.88,5.88,0,0,1-2.78-.63,3.55,3.55,0,0,1-1.62-1.71,4.29,4.29,0,0,1-.26-2.47l0.07-.41a5.74,5.74,0,0,1,2.15-3.66,6.54,6.54,0,0,1,4.24-1.32,5.76,5.76,0,0,1,3.37.89,3.27,3.27,0,0,1,1.31,2.5h-3a1.57,1.57,0,0,0-.52-1.16A2.09,2.09,0,0,0,98,7.11a2.74,2.74,0,0,0-2.05.74,4.12,4.12,0,0,0-1.11,2.21A6.68,6.68,0,0,0,94.66,12a1.7,1.7,0,0,0,2,1.66,4.12,4.12,0,0,0,1.92-.4l0.4-1.55H96.81L97.19,10h5.21Z" transform="translate(-17.79 -3.92)"/><path class="a" d="M157.32,11.57h-14l0.47-2h14Z" transform="translate(-17.79 -3.92)"/><path class="a" d="M34.89,19.1l0.93,4.82,3.26-4.82h3L40.43,26h-2.3l0.41-1.7,1-3.14L36.14,26H34.62l-1.1-5L32.91,24.5,32.52,26H30.24l1.68-6.94h3Z" transform="translate(-17.79 -3.92)"/><path class="a" d="M51,19.1L50,23.63a2.73,2.73,0,0,1-1.36,1.86,5.3,5.3,0,0,1-2.83.66,5.15,5.15,0,0,1-1.84-.33,2.37,2.37,0,0,1-1.15-.88,1.77,1.77,0,0,1-.25-1.3l1.08-4.54h2.3l-1.07,4.54a1.58,1.58,0,0,0,0,.45,0.72,0.72,0,0,0,.31.55,1.42,1.42,0,0,0,.78.21,1.55,1.55,0,0,0,1.77-1.22l1.08-4.54H51Z" transform="translate(-17.79 -3.92)"/><path class="a" d="M53.4,24.75h4L57,26H50.81l1.68-6.94h2.29Z" transform="translate(-17.79 -3.92)"/><path class="a" d="M65.48,20.39H62.65L61.28,26H59l1.38-5.65H57.58L57.9,19.1h7.89Z" transform="translate(-17.79 -3.92)"/><path class="a" d="M67.55,26H65.27L67,19.1h2.28Z" transform="translate(-17.79 -3.92)"/><path class="a" d="M72,23.68L71.46,26H69.18l1.68-6.94h3.49a4.43,4.43,0,0,1,2.55.64,1.7,1.7,0,0,1,.82,1.67,1.93,1.93,0,0,1-.63,1.21,3.59,3.59,0,0,1-1.45.79,6.91,6.91,0,0,1-2,.27H72Zm0.31-1.29h1.38a2.06,2.06,0,0,0,1.33-.4,1,1,0,0,0,.37-1,0.68,0.68,0,0,0-.31-0.46,1.33,1.33,0,0,0-.68-0.19h-1.6Z" transform="translate(-17.79 -3.92)"/><path class="a" d="M80.47,24.75h4L84.12,26H77.88l1.68-6.94h2.29Z" transform="translate(-17.79 -3.92)"/><path class="a" d="M87.57,26H85.29L87,19.1h2.28Z" transform="translate(-17.79 -3.92)"/><path class="a" d="M95.77,23.09H92.2l-0.41,1.66H96L95.7,26H89.2l1.68-6.94H97.4l-0.31,1.29H92.85l-0.36,1.46h3.58Z" transform="translate(-17.79 -3.92)"/><path class="a" d="M100.84,23.59H99.57L99,26H96.69l1.68-6.94h3.43a4.85,4.85,0,0,1,2.54.55,1.5,1.5,0,0,1,.8,1.5,1.88,1.88,0,0,1-.61,1.25,3.75,3.75,0,0,1-1.5.78L104.34,26V26H101.9Zm-1-1.29h1.33a2.19,2.19,0,0,0,1-.19,1.2,1.2,0,0,0,.58-0.52,0.91,0.91,0,0,0,.1-0.64,0.86,0.86,0,0,0-.95-0.56h-1.55Z" transform="translate(-17.79 -3.92)"/><path class="a" d="M111.63,23.68L111.05,26h-2.28l1.68-6.94h3.49a4.43,4.43,0,0,1,2.55.64,1.7,1.7,0,0,1,.82,1.67,1.93,1.93,0,0,1-.63,1.21,3.58,3.58,0,0,1-1.44.79,6.92,6.92,0,0,1-2,.27h-1.6Zm0.31-1.29h1.38a2.06,2.06,0,0,0,1.33-.4,1,1,0,0,0,.37-1,0.69,0.69,0,0,0-.31-0.46,1.33,1.33,0,0,0-.68-0.19h-1.59Z" transform="translate(-17.79 -3.92)"/><path class="a" d="M121.48,26.14a4,4,0,0,1-2.43-.72,2.55,2.55,0,0,1-1-1.85,3.81,3.81,0,0,1,.13-1.35,3.93,3.93,0,0,1,.69-1.43,4.17,4.17,0,0,1,1.23-1.09,5.38,5.38,0,0,1,2.86-.71,4.66,4.66,0,0,1,1.74.33,2.86,2.86,0,0,1,1.19.9,2.57,2.57,0,0,1,.52,1.33,4.15,4.15,0,0,1-.62,2.49,4.13,4.13,0,0,1-1,1.08,4.85,4.85,0,0,1-1.43.74A5.63,5.63,0,0,1,121.48,26.14Zm2.6-4.59a1.19,1.19,0,0,0-1.29-1.24,2.11,2.11,0,0,0-1.57.54,2.9,2.9,0,0,0-.82,1.68,4.2,4.2,0,0,0-.09,1.06,1.19,1.19,0,0,0,1.31,1.24,2.11,2.11,0,0,0,1.4-.42,2.48,2.48,0,0,0,.85-1.3A4.53,4.53,0,0,0,124.08,21.55Z" transform="translate(-17.79 -3.92)"/><path class="a" d="M130.6,23.48l-1.19.8L129,26h-2.28l1.68-6.94h2.29l-0.73,3,0.95-.83,2.52-2.15h3l-4,3.14,2.24,3.8H132Z" transform="translate(-17.79 -3.92)"/><path class="a" d="M141.82,23.09h-3.57l-0.41,1.66h4.23L141.75,26h-6.51l1.68-6.94h6.52l-0.31,1.29H138.9l-0.36,1.46h3.58Z" transform="translate(-17.79 -3.92)"/><path class="a" d="M146.88,23.59h-1.27L145,26h-2.28l1.68-6.94h3.43a4.85,4.85,0,0,1,2.54.55,1.5,1.5,0,0,1,.8,1.5,1.88,1.88,0,0,1-.61,1.25,3.75,3.75,0,0,1-1.5.78L150.39,26V26H148Zm-1-1.29h1.33a2.19,2.19,0,0,0,1-.19,1.2,1.2,0,0,0,.58-0.52,0.91,0.91,0,0,0,.1-0.64,0.86,0.86,0,0,0-.95-0.56h-1.55Z" transform="translate(-17.79 -3.92)"/><path class="b" d="M33,10.73l-14.22.07,0.48-2,14.22-.07Z" transform="translate(-17.79 -3.92)"/><path class="b" d="M44.55,11.9q0.2-.77-1.1-1.19L42,10.24q-3.1-1.06-3-2.88a2.23,2.23,0,0,1,.76-1.48,4.7,4.7,0,0,1,1.92-1,9.1,9.1,0,0,1,2.67-.35,5.47,5.47,0,0,1,3.13.86,2.55,2.55,0,0,1,1.16,2.23H45.6a1.15,1.15,0,0,0-.32-0.92,1.61,1.61,0,0,0-1.14-.36,3,3,0,0,0-1.37.27,1.16,1.16,0,0,0-.7.77q-0.17.68,1.34,1.12a17.35,17.35,0,0,1,2.19.75q2.15,1,2,2.63a2.34,2.34,0,0,1-.73,1.51,4.35,4.35,0,0,1-1.82,1,8.68,8.68,0,0,1-2.61.34,8.17,8.17,0,0,1-2-.25,4.78,4.78,0,0,1-1.56-.7,2.7,2.7,0,0,1-1.26-2.42h3.08a1.33,1.33,0,0,0,.39,1.15,2.23,2.23,0,0,0,1.48.39,2.78,2.78,0,0,0,1.29-.27A1.14,1.14,0,0,0,44.55,11.9Z" transform="translate(-17.79 -3.92)"/><path class="b" d="M60.47,6.51H56.65l-1.84,8.07H51.72l1.85-8.07H49.83l0.43-1.85H60.89Z" transform="translate(-17.79 -3.92)"/><path class="b" d="M65.58,11.07H63.87l-0.81,3.51H60l2.27-9.92h4.62a6.24,6.24,0,0,1,3.42.79A2.18,2.18,0,0,1,71.37,7.6a2.76,2.76,0,0,1-.82,1.78,5,5,0,0,1-2,1.11l1.76,4v0.12H67Zm-1.3-1.84h1.8A2.82,2.82,0,0,0,67.36,9a1.66,1.66,0,0,0,.78-0.75,1.36,1.36,0,0,0,.13-0.92A1.16,1.16,0,0,0,67,6.51H64.91Z" transform="translate(-17.79 -3.92)"/><path class="b" d="M75,14.58H71.93l2.28-9.92h3.07Z" transform="translate(-17.79 -3.92)"/><path class="b" d="M87.83,14.58h-3L81.72,8.32l-1.44,6.26H77.21l2.27-9.92h3l3.12,6.26L87,4.66H90.1Z" transform="translate(-17.79 -3.92)"/><path class="b" d="M100.7,13.36a5.09,5.09,0,0,1-2.15,1,12.16,12.16,0,0,1-3.13.34,5.88,5.88,0,0,1-2.78-.63A3.55,3.55,0,0,1,91,12.38a4.29,4.29,0,0,1-.26-2.47l0.07-.41A5.74,5.74,0,0,1,93,5.83a6.54,6.54,0,0,1,4.24-1.32,5.76,5.76,0,0,1,3.37.89,3.27,3.27,0,0,1,1.31,2.5H99a1.57,1.57,0,0,0-.52-1.16,2.09,2.09,0,0,0-1.29-.39,2.74,2.74,0,0,0-2.05.74A4.12,4.12,0,0,0,94,9.31a6.68,6.68,0,0,0-.18,1.91,1.7,1.7,0,0,0,2,1.66,4.12,4.12,0,0,0,1.92-.4l0.4-1.55H96l0.38-1.64h5.21Z" transform="translate(-17.79 -3.92)"/><path class="b" d="M156.5,10.81l-14.17-.08,0.47-2L157,8.85Z" transform="translate(-17.79 -3.92)"/><path class="c" d="M33.89,18.27l0.93,4.82,3.26-4.82h3l-1.68,6.94h-2.3l0.41-1.7,1-3.14-3.4,4.84H33.62l-1.1-5-0.61,3.48-0.38,1.54H29.24l1.68-6.94h3Z" transform="translate(-17.79 -3.92)"/><path class="c" d="M50,18.27L49,22.8a2.73,2.73,0,0,1-1.36,1.86,5.3,5.3,0,0,1-2.83.66A5.15,5.15,0,0,1,42.93,25a2.37,2.37,0,0,1-1.15-.88,1.77,1.77,0,0,1-.25-1.3l1.08-4.54h2.3l-1.07,4.54a1.58,1.58,0,0,0,0,.45,0.72,0.72,0,0,0,.31.55,1.42,1.42,0,0,0,.78.21,1.55,1.55,0,0,0,1.77-1.22l1.08-4.54H50Z" transform="translate(-17.79 -3.92)"/><path class="c" d="M52.4,23.92h4L56,25.21H49.81l1.68-6.94h2.29Z" transform="translate(-17.79 -3.92)"/><path class="c" d="M64.48,19.56H61.65l-1.37,5.65H58l1.38-5.65H56.58l0.32-1.29h7.89Z" transform="translate(-17.79 -3.92)"/><path class="c" d="M66.55,25.21H64.27L66,18.27h2.28Z" transform="translate(-17.79 -3.92)"/><path class="c" d="M71,22.85l-0.57,2.36H68.18l1.68-6.94h3.49a4.43,4.43,0,0,1,2.55.64,1.7,1.7,0,0,1,.82,1.67,1.93,1.93,0,0,1-.63,1.21,3.59,3.59,0,0,1-1.45.79,6.91,6.91,0,0,1-2,.27H71Zm0.31-1.29h1.38a2.06,2.06,0,0,0,1.33-.4,1,1,0,0,0,.37-1,0.68,0.68,0,0,0-.31-0.46,1.33,1.33,0,0,0-.68-0.19h-1.6Z" transform="translate(-17.79 -3.92)"/><path class="c" d="M79.47,23.92h4l-0.31,1.29H76.88l1.68-6.94h2.29Z" transform="translate(-17.79 -3.92)"/><path class="c" d="M86.57,25.21H84.29L86,18.27h2.28Z" transform="translate(-17.79 -3.92)"/><path class="c" d="M94.77,22.26H91.2l-0.41,1.66H95L94.7,25.21H88.2l1.68-6.94H96.4l-0.31,1.29H91.85L91.49,21h3.58Z" transform="translate(-17.79 -3.92)"/><path class="c" d="M99.84,22.75H98.57L98,25.21H95.69l1.68-6.94h3.43a4.85,4.85,0,0,1,2.54.55,1.5,1.5,0,0,1,.8,1.5,1.88,1.88,0,0,1-.61,1.25,3.75,3.75,0,0,1-1.5.78l1.31,2.78v0.08H100.9Zm-1-1.29h1.33a2.19,2.19,0,0,0,1-.19,1.2,1.2,0,0,0,.58-0.52,0.91,0.91,0,0,0,.1-0.64,0.86,0.86,0,0,0-.95-0.56H99.34Z" transform="translate(-17.79 -3.92)"/><path class="c" d="M110.63,22.85l-0.57,2.36h-2.28l1.68-6.94h3.49a4.43,4.43,0,0,1,2.55.64,1.7,1.7,0,0,1,.82,1.67,1.93,1.93,0,0,1-.63,1.21,3.58,3.58,0,0,1-1.44.79,6.92,6.92,0,0,1-2,.27h-1.6Zm0.31-1.29h1.38a2.06,2.06,0,0,0,1.33-.4,1,1,0,0,0,.37-1,0.69,0.69,0,0,0-.31-0.46,1.33,1.33,0,0,0-.68-0.19h-1.59Z" transform="translate(-17.79 -3.92)"/><path class="c" d="M120.48,25.3a4,4,0,0,1-2.43-.72,2.55,2.55,0,0,1-1-1.85,3.81,3.81,0,0,1,.13-1.35,3.93,3.93,0,0,1,.69-1.43,4.17,4.17,0,0,1,1.23-1.09,5.38,5.38,0,0,1,2.86-.71,4.66,4.66,0,0,1,1.74.33,2.86,2.86,0,0,1,1.19.9,2.57,2.57,0,0,1,.52,1.33,4.15,4.15,0,0,1-.62,2.49,4.13,4.13,0,0,1-1,1.08,4.85,4.85,0,0,1-1.43.74A5.63,5.63,0,0,1,120.48,25.3Zm2.6-4.59a1.19,1.19,0,0,0-1.29-1.24,2.11,2.11,0,0,0-1.57.54,2.9,2.9,0,0,0-.82,1.68,4.2,4.2,0,0,0-.09,1.06A1.19,1.19,0,0,0,120.61,24a2.11,2.11,0,0,0,1.4-.42,2.48,2.48,0,0,0,.85-1.3A4.53,4.53,0,0,0,123.08,20.72Z" transform="translate(-17.79 -3.92)"/><path class="c" d="M129.6,22.64l-1.19.8L128,25.21h-2.28l1.68-6.94h2.29l-0.73,3,0.95-.83,2.52-2.15h3l-4,3.14,2.24,3.8H131Z" transform="translate(-17.79 -3.92)"/><path class="c" d="M140.82,22.26h-3.57l-0.41,1.66h4.23l-0.31,1.29h-6.51l1.68-6.94h6.52l-0.31,1.29H137.9L137.54,21h3.58Z" transform="translate(-17.79 -3.92)"/><path class="c" d="M145.88,22.75h-1.27L144,25.21h-2.28l1.68-6.94h3.43a4.85,4.85,0,0,1,2.54.55,1.5,1.5,0,0,1,.8,1.5,1.88,1.88,0,0,1-.61,1.25,3.75,3.75,0,0,1-1.5.78l1.31,2.78v0.08H147Zm-1-1.29h1.33a2.19,2.19,0,0,0,1-.19,1.2,1.2,0,0,0,.58-0.52,0.91,0.91,0,0,0,.1-0.64,0.86,0.86,0,0,0-.95-0.56h-1.55Z" transform="translate(-17.79 -3.92)"/><path class="d" d="M32,10.07H17.79l0.48-2H32.49Z" transform="translate(-17.79 -3.92)"/><path class="d" d="M43.69,11.3q0.2-.77-1.1-1.19l-1.48-.46q-3.1-1.06-3-2.88a2.23,2.23,0,0,1,.76-1.48,4.7,4.7,0,0,1,1.92-1,15.91,15.91,0,0,1,3.52-.35,3,3,0,0,1,2.27.86A2.55,2.55,0,0,1,47.8,7H44.75a1.15,1.15,0,0,0-.32-0.92,1.61,1.61,0,0,0-1.14-.36A3,3,0,0,0,41.92,6a1.16,1.16,0,0,0-.7.77q-0.17.68,1.34,1.12a17.35,17.35,0,0,1,2.19.75q2.15,1,2,2.63A2.34,2.34,0,0,1,46,12.78a4.35,4.35,0,0,1-1.82,1,8.68,8.68,0,0,1-2.61.34,8.17,8.17,0,0,1-2-.25,4.78,4.78,0,0,1-1.56-.7,2.7,2.7,0,0,1-1.26-2.42H39.9a1.33,1.33,0,0,0,.39,1.15,2.23,2.23,0,0,0,1.48.39A2.78,2.78,0,0,0,43.06,12,1.14,1.14,0,0,0,43.69,11.3Z" transform="translate(-17.79 -3.92)"/><path class="d" d="M59.61,5.91H55.8L54,14H50.87l1.85-8.07H49l0.43-1.85H60Z" transform="translate(-17.79 -3.92)"/><path class="d" d="M64.72,10.47H63L62.2,14H59.13L61.4,4.06H66a6.25,6.25,0,0,1,3.42.79A2.18,2.18,0,0,1,70.52,7a2.76,2.76,0,0,1-.82,1.78,5,5,0,0,1-2,1.11l1.76,4V14H66.16Zm-1.3-1.84h1.8a2.82,2.82,0,0,0,1.28-.27,1.66,1.66,0,0,0,.78-0.75,1.36,1.36,0,0,0,.13-0.92,1.16,1.16,0,0,0-1.28-.8H64.06Z" transform="translate(-17.79 -3.92)"/><path class="d" d="M74.16,14H71.08l2.28-9.92h3.07Z" transform="translate(-17.79 -3.92)"/><path class="d" d="M87,14H84L80.87,7.72,79.43,14H76.35l2.27-9.92h3l3.12,6.26,1.43-6.26h3.08Z" transform="translate(-17.79 -3.92)"/><path class="d" d="M99.85,12.76a5.09,5.09,0,0,1-2.15,1,12.16,12.16,0,0,1-3.13.34,5.88,5.88,0,0,1-2.78-.63,3.55,3.55,0,0,1-1.62-1.71,4.29,4.29,0,0,1-.26-2.47L90,8.89a5.74,5.74,0,0,1,2.15-3.66,9.2,9.2,0,0,1,5.09-1.32,3.26,3.26,0,0,1,2.52.89,3.27,3.27,0,0,1,1.31,2.5h-3a1.57,1.57,0,0,0-.52-1.16,2.09,2.09,0,0,0-1.29-.39,2.74,2.74,0,0,0-2.05.74A4.12,4.12,0,0,0,93.14,8.7,6.68,6.68,0,0,0,93,10.61a1.7,1.7,0,0,0,2,1.66,4.12,4.12,0,0,0,1.92-.4l0.4-1.55H95.11l0.38-1.64h5.21Z" transform="translate(-17.79 -3.92)"/><path class="d" d="M156.32,10l-15,0,0.47-2,15,0Z" transform="translate(-17.79 -3.92)"/><path class="e" d="M32.89,17.6l0.93,4.82,3.26-4.82h3l-1.68,6.94h-2.3l0.41-1.7,1-3.14-3.4,4.84H32.62l-1.1-5L30.9,23l-0.38,1.54H28.24l1.68-6.94h3Z" transform="translate(-17.79 -3.92)"/><path class="e" d="M49,17.6L48,22.13A2.73,2.73,0,0,1,46.61,24a5.3,5.3,0,0,1-2.83.66,5.15,5.15,0,0,1-1.84-.33,2.37,2.37,0,0,1-1.15-.88,1.77,1.77,0,0,1-.25-1.3l1.08-4.54h2.3l-1.07,4.54a1.58,1.58,0,0,0,0,.45,0.72,0.72,0,0,0,.31.55,1.42,1.42,0,0,0,.78.21,1.55,1.55,0,0,0,1.77-1.22l1.08-4.54H49Z" transform="translate(-17.79 -3.92)"/><path class="e" d="M51.4,23.25h4L55,24.54H48.81l1.68-6.94h2.29Z" transform="translate(-17.79 -3.92)"/><path class="e" d="M63.48,18.89H60.65l-1.37,5.65H57l1.38-5.65H55.58L55.9,17.6h7.89Z" transform="translate(-17.79 -3.92)"/><path class="e" d="M65.55,24.54H63.27L65,17.6h2.28Z" transform="translate(-17.79 -3.92)"/><path class="e" d="M70,22.18l-0.57,2.36H67.18l1.68-6.94h3.49a4.43,4.43,0,0,1,2.55.64,1.7,1.7,0,0,1,.82,1.67,1.93,1.93,0,0,1-.63,1.21,3.59,3.59,0,0,1-1.45.79,6.91,6.91,0,0,1-2,.27H70Zm0.31-1.29h1.38a2.06,2.06,0,0,0,1.33-.4,1,1,0,0,0,.37-1,0.68,0.68,0,0,0-.31-0.46,1.33,1.33,0,0,0-.68-0.19h-1.6Z" transform="translate(-17.79 -3.92)"/><path class="e" d="M78.47,23.25h4l-0.31,1.29H75.88l1.68-6.94h2.29Z" transform="translate(-17.79 -3.92)"/><path class="e" d="M85.57,24.54H83.29L85,17.6h2.28Z" transform="translate(-17.79 -3.92)"/><path class="e" d="M93.77,21.59H90.2l-0.41,1.66H94L93.7,24.54H87.2l1.68-6.94H95.4l-0.31,1.29H90.85l-0.36,1.46h3.58Z" transform="translate(-17.79 -3.92)"/><path class="e" d="M98.84,22.09H97.57L97,24.54H94.69l1.68-6.94H99.8a4.85,4.85,0,0,1,2.54.55,1.5,1.5,0,0,1,.8,1.5,1.88,1.88,0,0,1-.61,1.25,3.75,3.75,0,0,1-1.5.78l1.31,2.78v0.08H99.9Zm-1-1.29h1.33a2.19,2.19,0,0,0,1-.19,1.2,1.2,0,0,0,.58-0.52,0.91,0.91,0,0,0,.1-0.64,0.86,0.86,0,0,0-.95-0.56H98.34Z" transform="translate(-17.79 -3.92)"/><path class="e" d="M109.63,22.18l-0.57,2.36h-2.28l1.68-6.94h3.49a4.43,4.43,0,0,1,2.55.64,1.7,1.7,0,0,1,.82,1.67,1.93,1.93,0,0,1-.63,1.21,3.58,3.58,0,0,1-1.44.79,6.92,6.92,0,0,1-2,.27h-1.6Zm0.31-1.29h1.38a2.06,2.06,0,0,0,1.33-.4,1,1,0,0,0,.37-1,0.69,0.69,0,0,0-.31-0.46,1.33,1.33,0,0,0-.68-0.19h-1.59Z" transform="translate(-17.79 -3.92)"/><path class="e" d="M119.48,24.64a4,4,0,0,1-2.43-.72,2.55,2.55,0,0,1-1-1.85,3.81,3.81,0,0,1,.13-1.35,3.93,3.93,0,0,1,.69-1.43,4.17,4.17,0,0,1,1.23-1.09,5.38,5.38,0,0,1,2.86-.71,4.66,4.66,0,0,1,1.74.33,2.86,2.86,0,0,1,1.19.9,2.57,2.57,0,0,1,.52,1.33,4.15,4.15,0,0,1-.62,2.49,4.13,4.13,0,0,1-1,1.08,4.85,4.85,0,0,1-1.43.74A5.63,5.63,0,0,1,119.48,24.64Zm2.6-4.59a1.19,1.19,0,0,0-1.29-1.24,2.11,2.11,0,0,0-1.57.54A2.9,2.9,0,0,0,118.4,21a4.2,4.2,0,0,0-.09,1.06,1.19,1.19,0,0,0,1.31,1.24,2.11,2.11,0,0,0,1.4-.42,2.48,2.48,0,0,0,.85-1.3A4.53,4.53,0,0,0,122.08,20Z" transform="translate(-17.79 -3.92)"/><path class="e" d="M128.6,22l-1.19.8L127,24.54h-2.28l1.68-6.94h2.29l-0.73,3,0.95-.83,2.52-2.15h3l-4,3.14,2.24,3.8H130Z" transform="translate(-17.79 -3.92)"/><path class="e" d="M139.82,21.59h-3.57l-0.41,1.66h4.23l-0.31,1.29h-6.51l1.68-6.94h6.52l-0.31,1.29H136.9l-0.36,1.46h3.58Z" transform="translate(-17.79 -3.92)"/><path class="e" d="M144.88,22.09h-1.27L143,24.54h-2.28l1.68-6.94h3.43a4.85,4.85,0,0,1,2.54.55,1.5,1.5,0,0,1,.8,1.5,1.88,1.88,0,0,1-.61,1.25,3.75,3.75,0,0,1-1.5.78l1.31,2.78v0.08H146Zm-1-1.29h1.33a2.19,2.19,0,0,0,1-.19,1.2,1.2,0,0,0,.58-0.52,0.91,0.91,0,0,0,.1-0.64,0.86,0.86,0,0,0-.95-0.56h-1.55Z" transform="translate(-17.79 -3.92)"/><path class="a" d="M107.59,14q0.16-1.08.21-1.73,0.09-1,.17-2.51Q108,8.56,108,8.06V7.5h1.44l1.53,0,1.78,0a16,16,0,0,1,1.67.08,5.31,5.31,0,0,1,1.34.31,3.22,3.22,0,0,1,1,.62,2.6,2.6,0,0,1,.64.9,2.69,2.69,0,0,1,.22,1.06,3.18,3.18,0,0,1-.65,1.93,3.25,3.25,0,0,1-.71.69,4.34,4.34,0,0,1-.94.49,5.15,5.15,0,0,1-.79.24,8.45,8.45,0,0,1-1.09.14q-0.77.06-1.74,0.06h-4.19Zm3.07-1.43,0.82,0a8.75,8.75,0,0,0,1.29-.09,2.48,2.48,0,0,0,1-.37,1.73,1.73,0,0,0,.64-0.72,2.11,2.11,0,0,0,.21-0.9,1.49,1.49,0,0,0-.31-1A1.59,1.59,0,0,0,113.5,9a5,5,0,0,0-1.38-.15l-1.21,0Z" transform="translate(-17.79 -3.92)"/><path class="a" d="M118.85,14q0.16-1.08.21-1.73,0.09-1,.17-2.51,0.06-1.18.06-1.69V7.5h1.44l1.53,0,1.78,0a16,16,0,0,1,1.67.08,5.31,5.31,0,0,1,1.34.31,3.22,3.22,0,0,1,1,.62,2.6,2.6,0,0,1,.64.9,2.69,2.69,0,0,1,.22,1.06,3.18,3.18,0,0,1-.65,1.93,3.25,3.25,0,0,1-.71.69,4.34,4.34,0,0,1-.94.49,5.15,5.15,0,0,1-.79.24,8.45,8.45,0,0,1-1.09.14Q124,14,123,14h-4.19Zm3.07-1.43,0.82,0a8.75,8.75,0,0,0,1.29-.09,2.48,2.48,0,0,0,1-.37,1.73,1.73,0,0,0,.64-0.72,2.11,2.11,0,0,0,.21-0.9,1.49,1.49,0,0,0-.31-1A1.59,1.59,0,0,0,124.76,9a5,5,0,0,0-1.38-.15l-1.21,0Z" transform="translate(-17.79 -3.92)"/><path class="a" d="M130.13,14q0.15-1,.2-1.64,0.07-.82.14-2.24t0.07-2q0-.21,0-0.59H132l1.81,0,1.77,0q0.89,0,1.27,0a4.48,4.48,0,0,1,.87.15,2.38,2.38,0,0,1,.62.27,1.44,1.44,0,0,1,.43.46A1.27,1.27,0,0,1,139,9a1.34,1.34,0,0,1-.1.52,1.39,1.39,0,0,1-.29.44,1.8,1.8,0,0,1-.42.32,2.56,2.56,0,0,1-.46.2,5.34,5.34,0,0,1-.6.14,5.16,5.16,0,0,1,.6.1,2.55,2.55,0,0,1,.49.18,1.81,1.81,0,0,1,.47.31,1.28,1.28,0,0,1,.31.43,1.23,1.23,0,0,1,.1.5,1.36,1.36,0,0,1-.18.68,1.67,1.67,0,0,1-.5.55,2.5,2.5,0,0,1-.7.33,4.68,4.68,0,0,1-.89.19q-0.37,0-1.35.06l-2.07,0h-3.25Zm3-1.3h1.37a5.37,5.37,0,0,0,.8,0,1.67,1.67,0,0,0,.48-0.14,0.68,0.68,0,0,0,.26-0.23,0.59,0.59,0,0,0,.1-0.33,0.49,0.49,0,0,0-.08-0.28,0.6,0.6,0,0,0-.23-0.2,1.28,1.28,0,0,0-.38-0.12,5.05,5.05,0,0,0-.71,0h-1.5ZM133.29,10h1L135,10l0.41-.06a1,1,0,0,0,.34-0.14A0.6,0.6,0,0,0,136,9.59,0.56,0.56,0,0,0,136,9.34,0.45,0.45,0,0,0,135.91,9a0.77,0.77,0,0,0-.4-0.2,3.93,3.93,0,0,0-.85-0.07h-1.28Z" transform="translate(-17.79 -3.92)"/><path class="f" d="M106.7,12.72q0.16-1.08.21-1.74,0.09-1,.17-2.51,0.06-1.18.06-1.69V6.23h1.44l1.53,0,1.78,0a16,16,0,0,1,1.67.08,5.31,5.31,0,0,1,1.34.31,3.21,3.21,0,0,1,1,.62,2.6,2.6,0,0,1,.64.9,2.69,2.69,0,0,1,.22,1.06,3.18,3.18,0,0,1-.65,1.93,3.24,3.24,0,0,1-.71.69,4.34,4.34,0,0,1-.94.49,5.09,5.09,0,0,1-.79.24,8.28,8.28,0,0,1-1.09.14q-0.77.06-1.74,0.06H106.7Zm3.07-1.43,0.82,0a8.82,8.82,0,0,0,1.29-.08,2.49,2.49,0,0,0,1-.37,1.73,1.73,0,0,0,.64-0.72,2.11,2.11,0,0,0,.21-0.9,1.49,1.49,0,0,0-.31-1,1.59,1.59,0,0,0-.81-0.54,5,5,0,0,0-1.38-.15l-1.21,0Z" transform="translate(-17.79 -3.92)"/><path class="f" d="M118,12.72q0.16-1.08.21-1.74,0.09-1,.17-2.51,0.06-1.18.06-1.69V6.23h1.44l1.53,0,1.78,0a16,16,0,0,1,1.67.08,5.31,5.31,0,0,1,1.34.31,3.21,3.21,0,0,1,1,.62,2.6,2.6,0,0,1,.64.9,2.69,2.69,0,0,1,.22,1.06,3.18,3.18,0,0,1-.65,1.93,3.24,3.24,0,0,1-.71.69,4.34,4.34,0,0,1-.94.49,5.09,5.09,0,0,1-.79.24,8.28,8.28,0,0,1-1.09.14q-0.77.06-1.74,0.06H118ZM121,11.29l0.82,0a8.82,8.82,0,0,0,1.29-.08,2.49,2.49,0,0,0,1-.37,1.73,1.73,0,0,0,.64-0.72,2.11,2.11,0,0,0,.21-0.9,1.49,1.49,0,0,0-.31-1,1.59,1.59,0,0,0-.81-0.54,5,5,0,0,0-1.38-.15l-1.21,0Z" transform="translate(-17.79 -3.92)"/><path class="f" d="M129.23,12.72q0.15-1,.2-1.64,0.07-.82.14-2.24t0.07-2q0-.21,0-0.59h1.5l1.81,0,1.77,0q0.89,0,1.27,0a4.52,4.52,0,0,1,.87.15,2.38,2.38,0,0,1,.62.27,1.44,1.44,0,0,1,.43.46,1.27,1.27,0,0,1,.18.65,1.33,1.33,0,0,1-.1.52,1.38,1.38,0,0,1-.29.44,1.8,1.8,0,0,1-.42.32,2.52,2.52,0,0,1-.46.2,5.13,5.13,0,0,1-.6.14,5.26,5.26,0,0,1,.6.1,2.55,2.55,0,0,1,.49.18,1.81,1.81,0,0,1,.47.31,1.28,1.28,0,0,1,.31.42,1.23,1.23,0,0,1,.1.5,1.36,1.36,0,0,1-.18.68,1.67,1.67,0,0,1-.5.55,2.5,2.5,0,0,1-.7.33,4.72,4.72,0,0,1-.89.19q-0.37,0-1.35.06l-2.07,0h-3.25Zm3-1.3h1.37a5.38,5.38,0,0,0,.8,0,1.65,1.65,0,0,0,.48-0.14,0.67,0.67,0,0,0,.26-0.23,0.59,0.59,0,0,0,.1-0.33,0.48,0.48,0,0,0-.08-0.28,0.61,0.61,0,0,0-.23-0.2,1.29,1.29,0,0,0-.38-0.12,5.15,5.15,0,0,0-.71,0h-1.5Zm0.16-2.66h1l0.71,0,0.41-.06a1,1,0,0,0,.34-0.14,0.59,0.59,0,0,0,.21-0.22,0.56,0.56,0,0,0,.06-0.25A0.45,0.45,0,0,0,135,7.76a0.77,0.77,0,0,0-.4-0.2,3.9,3.9,0,0,0-.85-0.07h-1.28Z" transform="translate(-17.79 -3.92)"/><path class="d" d="M105.58,11.94q0.16-1.08.21-1.73,0.09-1,.17-2.51Q106,6.52,106,6V5.45h1.44l1.53,0,1.78,0a16,16,0,0,1,1.67.08,5.31,5.31,0,0,1,1.34.31,3.22,3.22,0,0,1,1,.62,2.6,2.6,0,0,1,.64.9,2.69,2.69,0,0,1,.22,1.06,3.18,3.18,0,0,1-.65,1.93,3.25,3.25,0,0,1-.71.69,4.34,4.34,0,0,1-.94.49,5.15,5.15,0,0,1-.79.24,8.45,8.45,0,0,1-1.09.14q-0.77.06-1.74,0.06h-4.19Zm3.07-1.43,0.82,0a8.75,8.75,0,0,0,1.29-.09,2.48,2.48,0,0,0,1-.37,1.73,1.73,0,0,0,.64-0.72,2.11,2.11,0,0,0,.21-0.9,1.49,1.49,0,0,0-.31-1A1.59,1.59,0,0,0,111.49,7a5,5,0,0,0-1.38-.15l-1.21,0Z" transform="translate(-17.79 -3.92)"/><path class="d" d="M116.84,11.94q0.16-1.08.21-1.73,0.09-1,.17-2.51,0.06-1.18.06-1.69V5.45h1.44l1.53,0,1.78,0a16,16,0,0,1,1.67.08,5.31,5.31,0,0,1,1.34.31,3.22,3.22,0,0,1,1,.62,2.6,2.6,0,0,1,.64.9,2.69,2.69,0,0,1,.22,1.06,3.18,3.18,0,0,1-.65,1.93,3.25,3.25,0,0,1-.71.69,4.34,4.34,0,0,1-.94.49,5.15,5.15,0,0,1-.79.24,8.45,8.45,0,0,1-1.09.14q-0.77.06-1.74,0.06h-4.19Zm3.07-1.43,0.82,0a8.75,8.75,0,0,0,1.29-.09,2.48,2.48,0,0,0,1-.37,1.73,1.73,0,0,0,.64-0.72,2.11,2.11,0,0,0,.21-0.9,1.49,1.49,0,0,0-.31-1A1.59,1.59,0,0,0,122.75,7a5,5,0,0,0-1.38-.15l-1.21,0Z" transform="translate(-17.79 -3.92)"/><path class="d" d="M128.12,11.94q0.15-1,.2-1.64,0.07-.82.14-2.24t0.07-2q0-.21,0-0.59H130l1.81,0,1.77,0q0.89,0,1.27,0a4.48,4.48,0,0,1,.87.15,2.38,2.38,0,0,1,.62.27,1.44,1.44,0,0,1,.43.46A1.27,1.27,0,0,1,137,7a1.34,1.34,0,0,1-.1.52,1.39,1.39,0,0,1-.29.44,1.8,1.8,0,0,1-.42.32,2.56,2.56,0,0,1-.46.2,5.34,5.34,0,0,1-.6.14,5.16,5.16,0,0,1,.6.1,2.55,2.55,0,0,1,.49.18,1.81,1.81,0,0,1,.47.31,1.28,1.28,0,0,1,.31.43,1.23,1.23,0,0,1,.1.5,1.36,1.36,0,0,1-.18.68,1.67,1.67,0,0,1-.5.55,2.5,2.5,0,0,1-.7.33,4.68,4.68,0,0,1-.89.19q-0.37,0-1.35.06l-2.07,0h-3.25Zm3-1.3h1.37a5.37,5.37,0,0,0,.8,0,1.67,1.67,0,0,0,.48-0.14,0.68,0.68,0,0,0,.26-0.23,0.59,0.59,0,0,0,.1-0.33A0.49,0.49,0,0,0,134,9.62a0.6,0.6,0,0,0-.23-0.2,1.28,1.28,0,0,0-.38-0.12,5.05,5.05,0,0,0-.71,0h-1.5ZM131.29,8h1L133,8l0.41-.06a1,1,0,0,0,.34-0.14A0.6,0.6,0,0,0,134,7.54,0.56,0.56,0,0,0,134,7.29,0.45,0.45,0,0,0,133.9,7a0.77,0.77,0,0,0-.4-0.2,3.93,3.93,0,0,0-.85-0.07h-1.28Z" transform="translate(-17.79 -3.92)"/></svg>